<svg width="39" height="36" viewBox="0 0 39 36" fill="none" xmlns="http://www.w3.org/2000/svg">
<path d="M33.0268 16.9342C33.7952 18.1791 32.8738 19.7427 31.3379 19.7981C25.7296 20.0035 20.0113 21.3138 14.62 23.8936L12.8373 24.856C12.8373 24.8636 12.8127 24.8166 17.1526 31.8776C17.5508 32.5237 17.3144 33.349 16.6246 33.7222L15.2185 34.4815C14.5287 34.854 13.6457 34.6329 13.2475 33.9868L8.91865 26.9727L8.216 27.3527C6.83553 28.0977 5.07048 27.6555 4.27328 26.3641L1.02682 21.1038C0.230422 19.8124 0.70313 18.1612 2.0836 17.4154L8.4876 13.9563C13.3817 10.9946 17.529 7.07301 20.6378 2.45993C21.4575 1.24343 23.3651 1.27866 24.1335 2.52364L26.9112 7.02534C28.5072 6.16337 30.5487 6.6753 31.4701 8.16838C32.3914 9.66145 31.8442 11.5705 30.2482 12.4325L33.0268 16.9342Z" fill="#D1E7FF"/>
<path d="M31.47 8.16835C32.3914 9.66144 31.8441 11.5705 30.2481 12.4325L26.9111 7.0253C28.5071 6.16333 30.5486 6.67527 31.47 8.16835Z" fill="#D1E7FF"/>
<path d="M24.1335 2.52361C24.5168 3.14527 24.4922 3.91646 24.068 4.51444C20.6459 9.33821 16.0592 13.697 10.4497 17.0923L2.94649 21.145C2.43132 21.4238 2.02351 21.8098 1.73828 22.2558L1.02682 21.1038C0.230422 19.8123 0.70313 18.1611 2.0836 17.4153L8.4876 13.9562C13.3817 10.9945 17.529 7.07297 20.6378 2.4599C21.4574 1.24341 23.3651 1.27871 24.1335 2.52361Z" fill="#E8F3FF"/>
<path d="M8.4876 13.9563L14.62 23.8936C13.3911 24.557 9.44311 26.689 8.21599 27.3527C6.83552 28.0977 5.07048 27.6555 4.27328 26.364L1.02682 21.1038C0.230422 19.8124 0.70313 18.1612 2.0836 17.4154L8.4876 13.9563Z" fill="#B9DCFF"/>
<path d="M10.4296 17.1036C2.28098 21.5044 2.82099 21.1982 2.55811 21.3896C2.06305 21.7499 1.34053 21.6119 1.02669 21.1038C0.230302 19.8123 0.703011 18.1611 2.08348 17.4154L8.48748 13.9563L10.4296 17.1036Z" fill="#D1E7FF"/>
<path d="M14.0046 26.7554C11.7247 27.9904 13.4021 27.0816 10.0899 28.8698L8.91858 26.9728L12.8373 24.8569L14.0046 26.7554Z" fill="#B9DCFF"/>
</svg>
