<svg width="197" height="30" viewBox="0 0 197 30" fill="none" xmlns="http://www.w3.org/2000/svg">
<path d="M28.25 8.731C28.25 4.88143 25.1186 1.75 21.2692 1.75C18.5704 1.75 16.1516 3.32181 15.0001 5.66239C13.8484 3.32181 11.4294 1.75 8.7308 1.75C4.88142 1.75 1.75 4.88143 1.75 8.731C1.75 11.4277 3.26822 13.8058 5.5914 14.9656C3.26822 16.1253 1.75 18.5034 1.75 21.2002C1.75 25.0497 4.88142 28.1812 8.7308 28.1812C11.4294 28.1812 13.8484 26.6093 15.0001 24.2688C16.1516 26.6093 18.5704 28.1812 21.2692 28.1812C25.1186 28.1812 28.25 25.0497 28.25 21.2002C28.25 18.5034 26.7318 16.1253 24.4086 14.9656C26.7318 13.8058 28.25 11.4277 28.25 8.731Z" stroke="#3DB370" stroke-width="2"/>
<path fill-rule="evenodd" clip-rule="evenodd" d="M126.662 10.3451C130.769 10.3451 132.822 12.8884 132.822 17.9751V27.3201C132.822 27.7868 132.659 28.1834 132.332 28.5101C132.029 28.8368 131.632 29.0001 131.142 29.0001C130.675 29.0001 130.279 28.8368 129.952 28.5101C129.649 28.1834 129.497 27.7868 129.497 27.3201V17.9751C129.497 14.9418 128.214 13.4251 125.647 13.4251C124.27 13.4251 123.127 13.8684 122.217 14.7551C121.307 15.6184 120.852 16.6918 120.852 17.9751V27.3201C120.852 27.7868 120.689 28.1834 120.362 28.5101C120.059 28.8368 119.662 29.0001 119.172 29.0001C118.682 29.0001 118.285 28.8484 117.982 28.5451C117.679 28.2184 117.527 27.8101 117.527 27.3201V4.7801C117.527 4.31343 117.679 3.91677 117.982 3.5901C118.309 3.26343 118.705 3.1001 119.172 3.1001C119.662 3.1001 120.059 3.26343 120.362 3.5901C120.689 3.91677 120.852 4.31343 120.852 4.7801V13.6351C121.435 12.7251 122.252 11.9551 123.302 11.3251C124.352 10.6718 125.472 10.3451 126.662 10.3451ZM48.335 14.9651V7.7201H58.52C58.9867 7.7201 59.3833 7.56843 59.71 7.2651C60.0367 6.93843 60.2 6.5651 60.2 6.1451C60.2 5.6551 60.0367 5.25843 59.71 4.9551C59.4067 4.65177 59.01 4.5001 58.52 4.5001H46.585C46.1183 4.5001 45.7217 4.66343 45.395 4.9901C45.0683 5.31676 44.905 5.71343 44.905 6.1801V27.3201C44.905 27.7868 45.0683 28.1834 45.395 28.5101C45.7217 28.8368 46.13 29.0001 46.62 29.0001C47.0867 29.0001 47.4833 28.8368 47.81 28.5101C48.16 28.1834 48.335 27.7868 48.335 27.3201V18.1501H56.945C57.435 18.1501 57.8317 17.9984 58.135 17.6951C58.4617 17.3918 58.625 17.0301 58.625 16.6101C58.625 16.1201 58.4617 15.7234 58.135 15.4201C57.8317 15.1168 57.435 14.9651 56.945 14.9651H48.335ZM74.6432 10.7301C74.1999 10.4034 73.6749 10.2401 73.0682 10.2401C71.7616 10.2634 70.5949 10.6368 69.5682 11.3601C68.5416 12.0601 67.7716 12.9818 67.2582 14.1251V12.3401C67.2582 11.8734 67.0949 11.4768 66.7682 11.1501C66.4649 10.8234 66.0682 10.6601 65.5782 10.6601C65.1116 10.6601 64.7149 10.8234 64.3882 11.1501C64.0849 11.4768 63.9332 11.8734 63.9332 12.3401V27.3201C63.9332 27.8101 64.0849 28.2184 64.3882 28.5451C64.6916 28.8484 65.0882 29.0001 65.5782 29.0001C66.0682 29.0001 66.4649 28.8368 66.7682 28.5101C67.0949 28.1834 67.2582 27.7868 67.2582 27.3201V18.8851C67.2582 17.8118 67.4682 16.8434 67.8882 15.9801C68.3316 15.0934 68.8916 14.4051 69.5682 13.9151C70.2682 13.4018 70.9799 13.1451 71.7032 13.1451C71.9832 13.1451 72.3682 13.2268 72.8582 13.3901C73.2782 13.5301 73.5932 13.6001 73.8032 13.6001C74.2232 13.6001 74.5732 13.4601 74.8532 13.1801C75.1566 12.8768 75.3082 12.4451 75.3082 11.8851C75.3082 11.4184 75.0866 11.0334 74.6432 10.7301ZM93.7051 19.1301C93.6818 19.5501 93.5068 19.9118 93.1801 20.2151C92.8535 20.4951 92.4685 20.6351 92.0251 20.6351H79.7051C79.8685 22.3384 80.5101 23.7034 81.6301 24.7301C82.7735 25.7568 84.1618 26.2701 85.7951 26.2701C86.9151 26.2701 87.8251 26.1068 88.5251 25.7801C89.2251 25.4534 89.8435 25.0334 90.3801 24.5201C90.7301 24.3101 91.0685 24.2051 91.3951 24.2051C91.7918 24.2051 92.1185 24.3451 92.3751 24.6251C92.6551 24.9051 92.7951 25.2318 92.7951 25.6051C92.7951 26.0951 92.5618 26.5384 92.0951 26.9351C91.4185 27.6118 90.5201 28.1834 89.4001 28.6501C88.2801 29.1168 87.1368 29.3501 85.9701 29.3501C84.0801 29.3501 82.4118 28.9534 80.9651 28.1601C79.5418 27.3668 78.4335 26.2584 77.6401 24.8351C76.8701 23.4118 76.4851 21.8018 76.4851 20.0051C76.4851 18.0451 76.8818 16.3301 77.6751 14.8601C78.4918 13.3668 79.5535 12.2234 80.8601 11.4301C82.1901 10.6368 83.6135 10.2401 85.1301 10.2401C86.6235 10.2401 88.0235 10.6251 89.3301 11.3951C90.6368 12.1651 91.6868 13.2268 92.4801 14.5801C93.2735 15.9334 93.6818 17.4501 93.7051 19.1301ZM81.7351 14.4401C82.6918 13.6934 83.8235 13.3201 85.1301 13.3201C86.3901 13.3201 87.5101 13.7168 88.4901 14.5101C89.4935 15.3034 90.0535 16.3184 90.1701 17.5551V17.8351H79.8451C80.1485 16.2951 80.7785 15.1634 81.7351 14.4401ZM113.666 19.1301C113.643 19.5501 113.468 19.9118 113.141 20.2151C112.814 20.4951 112.429 20.6351 111.986 20.6351H99.6661C99.8294 22.3384 100.471 23.7034 101.591 24.7301C102.734 25.7568 104.123 26.2701 105.756 26.2701C106.876 26.2701 107.786 26.1068 108.486 25.7801C109.186 25.4534 109.804 25.0334 110.341 24.5201C110.691 24.3101 111.029 24.2051 111.356 24.2051C111.753 24.2051 112.079 24.3451 112.336 24.6251C112.616 24.9051 112.756 25.2318 112.756 25.6051C112.756 26.0951 112.523 26.5384 112.056 26.9351C111.379 27.6118 110.481 28.1834 109.361 28.6501C108.241 29.1168 107.098 29.3501 105.931 29.3501C104.041 29.3501 102.373 28.9534 100.926 28.1601C99.5027 27.3668 98.3944 26.2584 97.6011 24.8351C96.8311 23.4118 96.4461 21.8018 96.4461 20.0051C96.4461 18.0451 96.8427 16.3301 97.6361 14.8601C98.4527 13.3668 99.5144 12.2234 100.821 11.4301C102.151 10.6368 103.574 10.2401 105.091 10.2401C106.584 10.2401 107.984 10.6251 109.291 11.3951C110.598 12.1651 111.648 13.2268 112.441 14.5801C113.234 15.9334 113.643 17.4501 113.666 19.1301ZM101.696 14.4401C102.653 13.6934 103.784 13.3201 105.091 13.3201C106.351 13.3201 107.471 13.7168 108.451 14.5101C109.454 15.3034 110.014 16.3184 110.131 17.5551V17.8351H99.8061C100.109 16.2951 100.739 15.1634 101.696 14.4401ZM153.861 10.9051C153.557 10.5784 153.161 10.4151 152.671 10.4151C152.181 10.4151 151.784 10.5784 151.481 10.9051C151.177 11.2318 151.026 11.6401 151.026 12.1301V12.9701C150.396 12.1768 149.544 11.5234 148.471 11.0101C147.421 10.4968 146.277 10.2401 145.041 10.2401C143.501 10.2401 142.089 10.6484 140.806 11.4651C139.522 12.2818 138.507 13.4251 137.761 14.8951C137.037 16.3418 136.676 17.9751 136.676 19.7951C136.676 21.6151 137.037 23.2601 137.761 24.7301C138.507 26.1768 139.522 27.3084 140.806 28.1251C142.112 28.9418 143.559 29.3501 145.146 29.3501C146.359 29.3501 147.491 29.0701 148.541 28.5101C149.591 27.9268 150.419 27.2268 151.026 26.4101V27.3201C151.026 27.8101 151.177 28.2184 151.481 28.5451C151.784 28.8484 152.181 29.0001 152.671 29.0001C153.161 29.0001 153.557 28.8368 153.861 28.5101C154.187 28.1834 154.351 27.7868 154.351 27.3201V12.1301C154.351 11.6168 154.187 11.2084 153.861 10.9051ZM145.531 26.2701C146.627 26.2701 147.596 25.9901 148.436 25.4301C149.299 24.8701 149.964 24.1001 150.431 23.1201C150.921 22.1401 151.166 21.0318 151.166 19.7951C151.166 18.5818 150.921 17.4851 150.431 16.5051C149.964 15.5251 149.299 14.7551 148.436 14.1951C147.596 13.6118 146.627 13.3201 145.531 13.3201C144.434 13.3201 143.454 13.6001 142.591 14.1601C141.751 14.7201 141.086 15.4901 140.596 16.4701C140.129 17.4501 139.896 18.5584 139.896 19.7951C139.896 21.0318 140.129 22.1401 140.596 23.1201C141.086 24.1001 141.751 24.8701 142.591 25.4301C143.454 25.9901 144.434 26.2701 145.531 26.2701ZM174.94 27.3201V17.8001C174.94 12.7601 172.84 10.2401 168.64 10.2401C167.403 10.2401 166.236 10.5668 165.14 11.2201C164.066 11.8501 163.226 12.6318 162.62 13.5651V12.3401C162.62 11.8734 162.456 11.4768 162.13 11.1501C161.826 10.8234 161.43 10.6601 160.94 10.6601C160.473 10.6601 160.076 10.8234 159.75 11.1501C159.446 11.4768 159.295 11.8734 159.295 12.3401V27.3201C159.295 27.8101 159.446 28.2184 159.75 28.5451C160.053 28.8484 160.45 29.0001 160.94 29.0001C161.43 29.0001 161.826 28.8368 162.13 28.5101C162.456 28.1834 162.62 27.7868 162.62 27.3201V17.8351C162.62 17.0184 162.83 16.2718 163.25 15.5951C163.693 14.8951 164.288 14.3468 165.035 13.9501C165.805 13.5301 166.656 13.3201 167.59 13.3201C169.013 13.3201 170.04 13.7284 170.67 14.5451C171.3 15.3618 171.615 16.4584 171.615 17.8351V27.3201C171.615 27.7868 171.766 28.1834 172.07 28.5101C172.396 28.8368 172.793 29.0001 173.26 29.0001C173.75 29.0001 174.146 28.8368 174.45 28.5101C174.776 28.1834 174.94 27.7868 174.94 27.3201ZM194.78 3.1001C195.27 3.1001 195.667 3.26343 195.97 3.5901C196.297 3.89343 196.46 4.2901 196.46 4.7801V27.3201C196.46 27.7868 196.297 28.1834 195.97 28.5101C195.667 28.8368 195.27 29.0001 194.78 29.0001C194.29 29.0001 193.893 28.8484 193.59 28.5451C193.287 28.2184 193.135 27.8101 193.135 27.3201V26.3401C192.552 27.1801 191.723 27.8918 190.65 28.4751C189.6 29.0584 188.468 29.3501 187.255 29.3501C185.668 29.3501 184.233 28.9418 182.95 28.1251C181.667 27.3084 180.652 26.1768 179.905 24.7301C179.158 23.2601 178.785 21.6151 178.785 19.7951C178.785 17.9751 179.147 16.3418 179.87 14.8951C180.617 13.4251 181.632 12.2818 182.915 11.4651C184.198 10.6484 185.61 10.2401 187.15 10.2401C188.387 10.2401 189.53 10.4968 190.58 11.0101C191.63 11.5234 192.482 12.1884 193.135 13.0051V4.7801C193.135 4.2901 193.287 3.89343 193.59 3.5901C193.893 3.26343 194.29 3.1001 194.78 3.1001ZM190.545 25.4301C189.705 25.9901 188.737 26.2701 187.64 26.2701C186.543 26.2701 185.563 25.9901 184.7 25.4301C183.86 24.8701 183.195 24.1001 182.705 23.1201C182.238 22.1401 182.005 21.0318 182.005 19.7951C182.005 18.5818 182.238 17.4851 182.705 16.5051C183.195 15.5018 183.86 14.7201 184.7 14.1601C185.563 13.6001 186.543 13.3201 187.64 13.3201C188.737 13.3201 189.705 13.6001 190.545 14.1601C191.408 14.7201 192.073 15.5018 192.54 16.5051C193.03 17.4851 193.275 18.5818 193.275 19.7951C193.275 21.0318 193.03 22.1401 192.54 23.1201C192.073 24.1001 191.408 24.8701 190.545 25.4301Z" fill="white"/>
</svg>
