<svg width="30" height="30" viewBox="0 0 30 30" fill="none" xmlns="http://www.w3.org/2000/svg">
<path d="M28.25 8.731C28.25 4.88143 25.1186 1.75 21.2692 1.75C18.5704 1.75 16.1516 3.32181 15.0001 5.66239C13.8484 3.32181 11.4294 1.75 8.7308 1.75C4.88142 1.75 1.75 4.88143 1.75 8.731C1.75 11.4277 3.26822 13.8058 5.5914 14.9656C3.26822 16.1253 1.75 18.5034 1.75 21.2002C1.75 25.0497 4.88142 28.1812 8.7308 28.1812C11.4294 28.1812 13.8484 26.6093 15.0001 24.2688C16.1516 26.6093 18.5704 28.1812 21.2692 28.1812C25.1186 28.1812 28.25 25.0497 28.25 21.2002C28.25 18.5034 26.7318 16.1253 24.4086 14.9656C26.7318 13.8058 28.25 11.4277 28.25 8.731Z" stroke="#3DB370" stroke-width="2"/>
</svg>
